<?xml version="1.0" encoding="UTF-8"?>
<svg width="64px" height="64px" viewBox="0 0 64 64" version="1.1" xmlns="http://www.w3.org/2000/svg" xmlns:xlink="http://www.w3.org/1999/xlink">
    <title>SHOPIING-TOOLS/KBB</title>
    <g id="Visaul-Design" stroke="none" stroke-width="1" fill="none" fill-rule="evenodd">
        <g id="1500-HP_Marquee-Offer-Lease" transform="translate(-848.000000, -776.000000)">
            <g id="Group" transform="translate(102.000000, 776.000000)">
                <g id="KBB" transform="translate(722.500000, 0.000000)">
                    <g id="SHOPIING-TOOLS/KBB" transform="translate(23.500000, 0.000000)">
                        <rect id="Rectangle-path" x="0" y="0" width="64" height="64"></rect>
                        <path d="M61.9616886,43.0135133 L56.2961259,40.7086125 L62.304741,36.6956157 C62.9210985,36.2877496 63.2599735,35.5766785 63.1859849,34.8464765 C63.1119964,34.1162745 62.6372059,33.4859795 61.9512931,33.2073954 L56.4728499,30.9745228 L61.8889199,27.4348538 C62.2745277,27.1846827 62.4875851,26.7430101 62.4417083,26.2889111 C62.3958315,25.8348121 62.098634,25.4436457 61.6706138,25.2740094 L21.4711075,8.91333001 C21.1414037,8.76222333 20.7612584,8.76222333 20.4315547,8.91333001 L2.28096299,17.783082 C1.84945568,17.9858597 1.57444914,18.4164211 1.57444914,18.8892285 C1.57444914,19.362036 1.84945568,19.7925973 2.28096299,19.9953751 L7.83217488,22.5883884 L1.92751504,25.7576269 C1.23768857,26.0903266 0.8,26.7833478 0.8,27.542896 C0.8,28.3024442 1.23768857,28.9954655 1.92751504,29.3281651 L8.1024586,32.209291 L1.92751504,35.5225859 C1.23768857,35.8552855 0.8,36.5483067 0.8,37.307855 C0.8,38.0674032 1.23768857,38.7604244 1.92751504,39.0931241 L42.8443128,58.2114525 C43.479599,58.5069316 44.2246983,58.4523007 44.8090676,58.0673962 L62.304741,46.5017336 C62.9217524,46.0955342 63.2623288,45.3857745 63.1905335,44.655746 C63.1187381,43.9257176 62.6462622,43.294299 61.9616886,43.0135133 L61.9616886,43.0135133 Z M45.2716841,28.3107314 C46.1632406,27.9460657 47.2003474,27.900301 48.1348603,28.1843873 C48.9529107,28.4821984 49.0302938,28.9965994 48.2896266,29.3305089 C47.4003913,29.6664169 46.3811391,29.6892581 45.4706693,29.3936809 C44.6415642,29.1319681 44.5752358,28.6265917 45.3048483,28.2926822 L45.2716841,28.3107314 Z M32,16 C38.725724,16 44,18.8151899 44,22.4 C44,25.9848101 38.725724,28.8 32,28.8 C25.274276,28.8 20,25.9848101 20,22.4 C20,18.8151899 25.274276,16 32,16 Z M36,36.1339308 C34.5019926,36.5795862 32.9413061,36.8041862 31.3720706,36.8 C26.5149278,36.8 22.4,34.6458145 22.4,32.2003086 C22.440658,31.5287347 22.7263879,30.8918656 23.2077047,30.4 L36,36.1339308 Z M16.5082471,16.2654897 C17.4000397,15.9347023 18.4204674,15.9120913 19.3333987,16.2028891 C20.1532467,16.4980065 20.2307998,17.0077547 19.4885051,17.3386438 C18.6067889,17.6639048 17.599316,17.6864945 16.6965906,17.4012445 C15.8435056,17.1061271 15.7659524,16.5963789 16.5082471,16.2654897 Z M2.68004458,27.8333811 C2.51253735,27.7571588 2.40358503,27.5910735 2.4,27.4064853 C2.40255102,27.2134667 2.51560339,27.0391799 2.6904166,26.9587654 L9.58781088,23.2 L22.2520491,29.2077773 C21.7165844,29.9395938 21.4195262,30.8196647 21.4015433,31.7275037 C21.4015433,35.1114337 25.8096525,37.8394019 31.4416601,37.8394019 C33.5864791,37.8622182 35.7103796,37.4144759 37.664873,36.5274783 L43.0894402,39.0992651 C43.2551543,39.1762525 43.4358202,39.2153702 43.6184133,39.2137981 C43.8618891,39.2125137 44.0997355,39.1401606 44.3029667,39.0055563 L54.8201965,31.9461576 L61.3027099,34.580417 C61.4667197,34.6474142 61.5802795,34.8000823 61.5976831,34.9769745 C61.6150867,35.1538666 61.5334713,35.3258858 61.3856861,35.4237965 L43.929574,47.1374004 C43.7814033,47.2208665 43.6006316,47.2208665 43.452461,47.1374004 L2.68004458,27.8333811 Z M36,45.8069977 C34.4961541,46.2136966 32.9406104,46.4131033 31.3792771,46.3993326 C26.5182329,46.3993326 22.4,44.3896249 22.4,41.9039337 C22.4313507,41.1806055 22.7526816,40.4976053 23.295743,40 L36,45.8069977 Z M61.4140277,45.0534931 L43.9349212,56.7377784 C43.7867315,56.8207405 43.6059365,56.8207405 43.4577468,56.7377784 L2.68008064,37.5502984 C2.51255184,37.4745362 2.40358549,37.3094536 2.4,37.1259798 C2.40255135,36.9341265 2.51561828,36.7608918 2.69045399,36.6809628 L9.85844365,32.8 L22.3790855,38.6990634 C21.7732133,39.3993528 21.431934,40.289009 21.4143633,41.2139273 C21.4143633,44.5774284 25.82304,47.1336892 31.4557728,47.1336892 C33.592789,47.172142 35.7138184,46.7595031 37.679787,45.9228288 L42.7731052,48.3238511 C43.4070366,48.6210387 44.1505468,48.566092 44.7336697,48.1789618 L54.6713457,41.555452 L61.2584273,44.2669513 C61.4347248,44.3190896 61.565308,44.4676525 61.5941001,44.648842 C61.6228922,44.8300316 61.5447697,45.011605 61.393281,45.1155885 L61.4140277,45.0534931 Z M26.4095808,22.5288245 L26.4971771,22.6628019 C26.8500403,23.1381614 27.3513583,23.4983541 27.9315654,23.6933977 C28.8240402,24.0945501 29.8562399,24.1170566 30.7674936,23.7552335 C30.9451613,23.6914044 31.0822173,23.5548157 31.1397776,23.384219 C31.096292,23.0543813 30.9100867,22.7560649 30.6251497,22.5597424 C30.0786004,22.2053708 29.7322807,21.6368283 29.6834902,21.0138486 C29.7810673,20.6056259 30.083211,20.2674385 30.4937553,20.1069243 C31.8710439,19.512078 33.4376732,19.4346642 34.8735672,19.8904992 L36.1984602,19.2 L37.5562019,19.7668277 L36.2751069,20.436715 C36.7426532,20.6524331 37.1454185,20.9748388 37.4467066,21.3745572 L37.6,21.5909823 L35.9685201,22.0444444 L35.8918734,21.9310789 C35.5721706,21.5004509 35.1161594,21.1758394 34.5888794,21.0035427 C33.8122961,20.635349 32.9025471,20.6089439 32.1033362,20.931401 C31.9563547,20.9733654 31.8413343,21.0816253 31.7967494,21.2199678 C31.9099475,21.5960165 32.1477942,21.9282063 32.4756202,22.1681159 C32.9612778,22.5119328 33.2487587,23.0492895 33.2530368,23.621256 C33.1290218,24.0884785 32.7748918,24.4715998 32.3004277,24.6518519 C30.8564331,25.2680371 29.2195501,25.3526087 27.7125749,24.8888889 L26.3438837,25.6 L24.9642429,25.0228663 L26.3000855,24.3323671 C25.7243837,24.0829257 25.2376393,23.6820571 24.8985458,23.1780998 L24.8,22.9719807 L26.4095808,22.5288245 Z" id="Shape" fill="#E10A1D"></path>
                    </g>
                </g>
            </g>
        </g>
    </g>
</svg>