<?xml version="1.0" encoding="utf-8"?>
<!-- Generator: Adobe Illustrator 24.1.2, SVG Export Plug-In . SVG Version: 6.00 Build 0)  -->
<svg version="1.1" id="EXPLORE_x5F_TILE_x5F_468x263_x5F_FINAL_xA0_Image_1_"
	 xmlns="http://www.w3.org/2000/svg" xmlns:xlink="http://www.w3.org/1999/xlink" x="0px" y="0px" viewBox="0 0 468 263"
	 style="enable-background:new 0 0 468 263;" xml:space="preserve">
<style type="text/css">
	.st0{fill:#FFFFFF;}
	.st1{fill:#D7312D;}
</style>
<g>
	<path class="st0" d="M346.4,133.7l4.2-10.9l4.2,10.9H346.4z M354.9,116.6h-8.7l-12.1,29.6h7.5l2.8-7.2h12.3l2.8,7.2h7.5
		L354.9,116.6z M293.9,141.1c-4.9,0-8.8-4.4-8.8-9.8c0-5.4,4-9.8,8.8-9.8c4.9,0,8.8,4.4,8.8,9.8
		C302.7,136.7,298.8,141.1,293.9,141.1 M293.9,115.6c-8.6,0-15.6,7-15.6,15.6c0,8.6,7,15.6,15.6,15.6c8.6,0,15.6-7,15.6-15.6
		C309.6,122.6,302.5,115.6,293.9,115.6 M232.2,141.1c-4.9,0-8.8-4.4-8.8-9.8c0-5.4,4-9.8,8.8-9.8c4.9,0,8.8,4.4,8.8,9.8
		C241,136.7,237.1,141.1,232.2,141.1 M232.2,115.6c-8.6,0-15.6,7-15.6,15.6c0,8.6,7,15.6,15.6,15.6c8.6,0,15.6-7,15.6-15.6
		C247.8,122.6,240.8,115.6,232.2,115.6 M270.8,116.6l-7.7,12l-7.7-12H248l11.9,18.6v11h6.6v-11l11.9-18.6H270.8z M335.8,116.6h-25.3
		v5.7h9.4v23.9h6.6v-23.9h9.3V116.6z M189.8,122.3h9.4v23.9h6.6v-23.9h9.3v-5.7h-25.3V122.3z"/>
	<g>
		<g>
			<rect x="101" y="96" class="st1" width="71.1" height="71.1"/>
		</g>
		<path class="st0" d="M136.6,113.8c-14.8,0-26.2,7.5-26.2,17.8s11.4,17.8,26.2,17.8s26.2-7.5,26.2-17.8S151.4,113.8,136.6,113.8z
			 M152.6,122.1c0,2.4-3.8,4.2-9.8,4.9c-0.6-5.6-2.2-9.3-4.3-10.7C145,116.7,152.6,119,152.6,122.1z M136.6,141.1
			c-2.1,0-3.8-3.3-3.9-9.6c1.3,0.1,2.6,0.2,3.9,0.2s2.7-0.1,3.9-0.2C140.4,137.9,138.7,141.1,136.6,141.1z M136.6,127.4
			c-1.3,0-2.5,0-3.7-0.1c0.6-3.8,2-6.9,3.7-6.9s3.1,3.1,3.7,6.9C139.1,127.3,137.9,127.4,136.6,127.4z M134.7,116.3
			c-2.1,1.4-3.7,5.1-4.3,10.7c-6-0.7-9.8-2.5-9.8-4.9C120.6,119,128.3,116.7,134.7,116.3z M114.9,130.8c0-2.6,0.8-4.9,2.3-6.9
			c0.6,3.4,5.5,6.3,13,7.3c0,0.1,0,0.2,0,0.3c0,8.2,1.9,13.5,4.5,15.2C123.6,146,114.9,139.1,114.9,130.8z M138.5,146.7
			c2.6-1.7,4.5-7,4.5-15.2c0-0.1,0-0.2,0-0.3c7.5-1.1,12.4-4,13-7.3c1.5,2,2.3,4.3,2.3,6.9C158.3,139.1,149.6,146,138.5,146.7z"/>
	</g>
</g>
</svg>
