<svg class="tcom-icon tcom-icon-news" xmlns="http://www.w3.org/2000/svg" width="19" height="18" viewBox="-0.198 0 19 18"><g fill="#D61F26"><path d="M18.583 13.994V0H4.319v4.313H.008l-.002.958s-.013 6.888 0 9.027c.017 2.664 1.306 3.448 2.354 3.644V18h.656l.1-.001h12.183l.181-.017c.256-.049 1.562-.336 2.164-1.164 1.002-1.379.997-2.411.939-2.824zm-14.264.305c.005.729-.131 1.248-.396 1.506-.174.172-.453.264-.83.274h-.155c-.404-.011-1.002-.043-1.013-1.792-.009-1.641-.004-6.087-.001-8.054H4.32v8.066zm11.772 1.389c-.095.121-.521.306-.894.392H5.963c.188-.505.28-1.103.276-1.786V1.919h10.423v12.157l-.012.068.031.119c.001.008.061.531-.59 1.425z"/><path d="M8.676 5.029h5.319v1.919H8.676zM8.676 9.583h5.319v1.92H8.676z"/></g></svg>