<svg xmlns="http://www.w3.org/2000/svg" width="175" height="50" viewBox="0 0 175 50">
    <g fill="none" fill-rule="evenodd">
        <g>
            <path fill="#EB0A1E" d="M0 0H47.258V47.195H0z" transform="translate(0 1.8)"/>
            <path fill="#FFF" fill-rule="nonzero" d="M23.636 12.888c-8.93 0-15.762 4.593-15.762 10.717 0 6.124 6.653 10.702 15.762 10.702 9.11 0 15.689-4.786 15.689-10.702s-6.832-10.717-15.748-10.717m9.809 4.593c.342 1.323-1.206 2.973-6.162 3.508-.328-3.36-1.325-6.199-2.977-6.808 2.104.048 4.188.424 6.177 1.115 1.726.639 2.798 1.486 2.977 2.185m-7.338 6.064c0 4.267-1.28 6.035-2.471 6.035s-2.486-1.768-2.486-6.035c.804.075 1.623.104 2.486.104.863 0 1.682 0 2.47-.104m-2.47-2.378h-2.337c.387-2.794 1.384-4.46 2.337-4.46.952 0 1.935 1.62 2.322 4.46h-2.322m-9.824-3.686c.164-.714 1.235-1.487 2.977-2.185 1.999-.69 4.093-1.066 6.207-1.115-1.667.61-2.665 3.448-2.977 6.808-4.957-.535-6.49-2.185-6.162-3.508m-3.617 5.737c-.016-1.7.575-3.349 1.667-4.652.134 2.393 3.379 4.177 7.993 4.801v.178c0 5.768 1.488 8.83 3.126 9.47-7.056-.254-12.786-4.594-12.786-9.797m14.05 9.796c1.683-.654 3.171-3.939 3.171-9.469v-.178c4.63-.624 7.86-2.408 7.993-4.801 1.092 1.303 1.683 2.953 1.667 4.652 0 5.203-5.745 9.558-12.815 9.796" transform="translate(0 1.8)"/>
        </g>
        <path fill="#FFF" fill-rule="nonzero" d="M63.452 22.38c1.872 0 3.276-.504 4.5-1.368l-.684-2.142c-.9.648-2.178 1.224-3.636 1.224-2.592 0-4.266-1.854-4.266-4.302 0-2.502 1.728-4.266 4.266-4.266 1.278 0 2.394.486 3.33 1.152l.792-2.196c-1.08-.72-2.502-1.242-4.212-1.242-3.87 0-6.714 2.664-6.714 6.588 0 3.87 2.736 6.552 6.624 6.552zm10.062 0c1.62 0 2.898-.468 3.726-1.08l-.558-1.764c-.702.54-1.746.954-2.934.954-1.584 0-2.628-.828-2.772-2.358h6.678v-.342c0-2.934-1.746-4.878-4.374-4.878-2.61 0-4.59 1.944-4.59 4.752 0 2.718 1.926 4.716 4.824 4.716zm1.854-5.778h-4.32c.27-1.17 1.116-1.944 2.232-1.944 1.098 0 1.926.792 2.088 1.944zm6.444 5.598v-4.302c0-1.818.666-2.808 2.088-2.808.324 0 .684.09.954.18l.36-2.16c-.342-.126-.738-.216-1.17-.216-.9 0-1.71.45-2.232 1.656v-1.458H79.58V22.2h2.232zm8.298.18c1.026 0 1.908-.324 2.466-.702l-.36-1.818c-.378.216-.972.486-1.566.486-.684 0-1.08-.396-1.08-1.26v-4.104h2.466v-1.89H89.57v-2.844l-2.25.288v2.556h-1.404v1.89h1.404v4.41c0 2.016 1.044 2.988 2.79 2.988zm5.04-10.818c.774 0 1.368-.612 1.368-1.386 0-.774-.594-1.368-1.368-1.368-.792 0-1.386.594-1.386 1.368 0 .774.594 1.386 1.386 1.386zM96.248 22.2v-9.108h-2.25V22.2h2.25zm5.472 0v-7.218h2.142v-1.89h-2.142v-1.098c0-1.044.414-1.44 1.116-1.44.432 0 .882.18 1.17.324l.414-1.89c-.504-.234-1.206-.45-2.016-.45-1.674 0-2.934.918-2.934 3.366v1.188h-1.53v1.89h1.53V22.2h2.25zm4.968-10.638c.774 0 1.368-.612 1.368-1.386 0-.774-.594-1.368-1.368-1.368-.792 0-1.386.594-1.386 1.368 0 .774.594 1.386 1.386 1.386zm1.098 10.638v-9.108h-2.25V22.2h2.25zm6.858.18c1.62 0 2.898-.468 3.726-1.08l-.558-1.764c-.702.54-1.746.954-2.934.954-1.584 0-2.628-.828-2.772-2.358h6.678v-.342c0-2.934-1.746-4.878-4.374-4.878-2.61 0-4.59 1.944-4.59 4.752 0 2.718 1.926 4.716 4.824 4.716zm1.854-5.778h-4.32c.27-1.17 1.116-1.944 2.232-1.944 1.098 0 1.926.792 2.088 1.944zm8.01 5.778c1.332 0 2.412-.504 3.042-1.602v1.44h2.25V8.664h-2.25v5.778c-.594-.99-1.71-1.53-3.042-1.53-2.538 0-4.392 1.98-4.392 4.734s1.854 4.734 4.392 4.734zm.468-2.052c-1.512 0-2.538-1.08-2.538-2.682 0-1.602 1.044-2.682 2.556-2.682 1.53 0 2.628 1.116 2.628 2.682 0 1.548-1.098 2.682-2.646 2.682zM62.642 41.38c3.204 0 5.202-1.89 5.202-4.932V28.42h-2.412v7.722c0 1.98-1.134 2.934-2.772 2.934s-2.772-.954-2.772-2.934V28.42H57.44v8.028c0 3.042 1.998 4.932 5.202 4.932zm10.638 0c2.34 0 3.672-1.206 3.672-3.024 0-1.62-1.098-2.304-2.952-2.772-.936-.252-1.692-.486-1.692-1.134 0-.576.558-.864 1.296-.864.918 0 1.926.396 2.592.81l.414-1.728c-.738-.432-1.836-.774-2.97-.774-2.106 0-3.528 1.08-3.528 2.898 0 1.674 1.242 2.196 2.682 2.682 1.242.396 1.962.612 1.962 1.278 0 .63-.54.936-1.368.936-1.062 0-2.214-.432-2.988-1.044l-.54 1.8c.792.576 2.16.936 3.42.936zm10.044 0c1.62 0 2.898-.468 3.726-1.08l-.558-1.764c-.702.54-1.746.954-2.934.954-1.584 0-2.628-.828-2.772-2.358h6.678v-.342c0-2.934-1.746-4.878-4.374-4.878-2.61 0-4.59 1.944-4.59 4.752 0 2.718 1.926 4.716 4.824 4.716zm1.854-5.778h-4.32c.27-1.17 1.116-1.944 2.232-1.944 1.098 0 1.926.792 2.088 1.944zm8.01 5.778c1.332 0 2.412-.504 3.042-1.602v1.44h2.25V27.664h-2.25v5.778c-.594-.99-1.71-1.53-3.042-1.53-2.538 0-4.392 1.98-4.392 4.734s1.854 4.734 4.392 4.734zm.468-2.052c-1.512 0-2.538-1.08-2.538-2.682 0-1.602 1.044-2.682 2.556-2.682 1.53 0 2.628 1.116 2.628 2.682 0 1.548-1.098 2.682-2.646 2.682zm17.352 1.872l4.626-12.78h-2.592l-3.33 9.936-3.348-9.936h-2.628l4.626 12.78h2.646zm9.27.18c1.62 0 2.898-.468 3.726-1.08l-.558-1.764c-.702.54-1.746.954-2.934.954-1.584 0-2.628-.828-2.772-2.358h6.678v-.342c0-2.934-1.746-4.878-4.374-4.878-2.61 0-4.59 1.944-4.59 4.752 0 2.718 1.926 4.716 4.824 4.716zm1.854-5.778h-4.32c.27-1.17 1.116-1.944 2.232-1.944 1.098 0 1.926.792 2.088 1.944zm6.462 5.598v-4.86c0-1.494.9-2.43 2.286-2.43 1.26 0 1.854.756 1.854 2.358V41.2h2.25v-5.796c0-2.286-1.116-3.51-3.222-3.51-1.404 0-2.538.576-3.168 1.638v-5.868h-2.25V41.2h2.25zm10.098-10.638c.774 0 1.368-.612 1.368-1.386 0-.774-.594-1.368-1.368-1.368-.792 0-1.386.594-1.386 1.368 0 .774.594 1.386 1.386 1.386zM139.79 41.2v-9.108h-2.25V41.2h2.25zm6.768.18c1.332 0 2.448-.414 3.24-.954l-.558-1.872c-.738.468-1.656.792-2.484.792-1.566 0-2.574-1.098-2.574-2.7s1.062-2.7 2.592-2.7c.882 0 1.674.342 2.25.756l.666-1.908c-.702-.468-1.746-.882-3.078-.882-2.736 0-4.788 1.926-4.788 4.77 0 2.79 1.962 4.698 4.734 4.698zm7.434 0c.774 0 1.35-.198 1.728-.378l-.252-1.782c-.216.072-.522.18-.846.18-.54 0-.846-.306-.846-1.062V27.664h-2.25v11.034c0 1.854.918 2.682 2.466 2.682zm7.272 0c1.62 0 2.898-.468 3.726-1.08l-.558-1.764c-.702.54-1.746.954-2.934.954-1.584 0-2.628-.828-2.772-2.358h6.678v-.342c0-2.934-1.746-4.878-4.374-4.878-2.61 0-4.59 1.944-4.59 4.752 0 2.718 1.926 4.716 4.824 4.716zm1.854-5.778h-4.32c.27-1.17 1.116-1.944 2.232-1.944 1.098 0 1.926.792 2.088 1.944zm7.146 5.778c2.34 0 3.672-1.206 3.672-3.024 0-1.62-1.098-2.304-2.952-2.772-.936-.252-1.692-.486-1.692-1.134 0-.576.558-.864 1.296-.864.918 0 1.926.396 2.592.81l.414-1.728c-.738-.432-1.836-.774-2.97-.774-2.106 0-3.528 1.08-3.528 2.898 0 1.674 1.242 2.196 2.682 2.682 1.242.396 1.962.612 1.962 1.278 0 .63-.54.936-1.368.936-1.062 0-2.214-.432-2.988-1.044l-.54 1.8c.792.576 2.16.936 3.42.936z"/>
    </g>
</svg>
