<svg xmlns="http://www.w3.org/2000/svg" width="164" height="49" viewBox="0 0 164 49">
    <g fill="none" fill-rule="evenodd">
        <g>
            <path fill="#EB0A1E" d="M0 0H47.258V47.195H0z" transform="translate(0 .8)"/>
            <path fill="#FFF" fill-rule="nonzero" d="M23.636 12.888c-8.93 0-15.762 4.593-15.762 10.717 0 6.124 6.653 10.702 15.762 10.702 9.11 0 15.689-4.786 15.689-10.702s-6.832-10.717-15.748-10.717m9.809 4.593c.342 1.323-1.206 2.973-6.162 3.508-.328-3.36-1.325-6.199-2.977-6.808 2.104.048 4.188.424 6.177 1.115 1.726.639 2.798 1.486 2.977 2.185m-7.338 6.064c0 4.267-1.28 6.035-2.471 6.035s-2.486-1.768-2.486-6.035c.804.075 1.623.104 2.486.104.863 0 1.682 0 2.47-.104m-2.47-2.378h-2.337c.387-2.794 1.384-4.46 2.337-4.46.952 0 1.935 1.62 2.322 4.46h-2.322m-9.824-3.686c.164-.714 1.235-1.487 2.977-2.185 1.999-.69 4.093-1.066 6.207-1.115-1.667.61-2.665 3.448-2.977 6.808-4.957-.535-6.49-2.185-6.162-3.508m-3.617 5.737c-.016-1.7.575-3.349 1.667-4.652.134 2.393 3.379 4.177 7.993 4.801v.178c0 5.768 1.488 8.83 3.126 9.47-7.056-.254-12.786-4.594-12.786-9.797m14.05 9.796c1.683-.654 3.171-3.939 3.171-9.469v-.178c4.63-.624 7.86-2.408 7.993-4.801 1.092 1.303 1.683 2.953 1.667 4.652 0 5.203-5.745 9.558-12.815 9.796" transform="translate(0 .8)"/>
        </g>
        <path fill="#FFF" fill-rule="nonzero" d="M58.829 39.2v-3.725h3.494v-1.523H58.83v-2.317h3.673v-1.523h-5.401V39.2h1.728zm5.888-7.565c.55 0 .973-.435.973-.985s-.423-.973-.973-.973c-.563 0-.986.422-.986.973 0 .55.423.985.986.985zm.78 7.565v-6.477h-1.6V39.2h1.6zm3.47 0v-3.456c0-1.05.614-1.715 1.612-1.715.922 0 1.331.537 1.331 1.677V39.2h1.6v-4.109c0-1.625-.793-2.509-2.29-2.509-.96 0-1.793.423-2.254 1.204v-1.063h-1.6V39.2h1.6zm8.127.14c.999 0 1.78-.447 2.19-1.036v.896h1.586v-4.083c0-1.754-1.088-2.522-2.752-2.522-1.113 0-2.06.346-2.675.73l.371 1.267c.474-.32 1.152-.678 2.023-.678.985 0 1.433.486 1.433 1.254v.128c-2.944.038-4.275.602-4.275 2.112 0 1.203.832 1.933 2.1 1.933zm.576-1.19c-.652 0-1.01-.32-1.01-.832 0-.704.652-.998 2.61-1.036v.435c0 .998-.819 1.433-1.6 1.433zm6.618 1.05v-3.456c0-1.05.614-1.715 1.613-1.715.921 0 1.331.537 1.331 1.677V39.2h1.6v-4.109c0-1.625-.794-2.509-2.291-2.509-.96 0-1.792.423-2.253 1.204v-1.063h-1.6V39.2h1.6zm9.306.128c.947 0 1.74-.294 2.304-.678l-.397-1.332c-.525.333-1.178.564-1.767.564-1.113 0-1.83-.781-1.83-1.92 0-1.14.755-1.92 1.843-1.92.627 0 1.19.243 1.6.537l.474-1.357c-.5-.332-1.242-.627-2.189-.627-1.946 0-3.405 1.37-3.405 3.392 0 1.984 1.395 3.341 3.367 3.341zm4.364-7.693c.55 0 .973-.435.973-.985s-.422-.973-.973-.973c-.563 0-.985.422-.985.973 0 .55.422.985.985.985zm.781 7.565v-6.477h-1.6V39.2h1.6zm3.635.14c.999 0 1.78-.447 2.19-1.036v.896h1.586v-4.083c0-1.754-1.088-2.522-2.752-2.522-1.113 0-2.06.346-2.675.73l.371 1.267c.474-.32 1.152-.678 2.023-.678.985 0 1.433.486 1.433 1.254v.128c-2.944.038-4.275.602-4.275 2.112 0 1.203.832 1.933 2.1 1.933zm.576-1.19c-.652 0-1.01-.32-1.01-.832 0-.704.652-.998 2.61-1.036v.435c0 .998-.819 1.433-1.6 1.433zm6.759 1.178c.55 0 .96-.14 1.229-.269l-.18-1.267c-.153.051-.37.128-.601.128-.384 0-.602-.218-.602-.755v-7.59h-1.6v7.846c0 1.318.653 1.907 1.754 1.907zm7.897 0c1.959 0 3.239-1.024 3.239-2.829 0-1.625-1.063-2.086-2.496-2.611-1.088-.397-1.805-.678-1.805-1.395 0-.615.55-.986 1.382-.986.692 0 1.55.243 2.15.589l.487-1.485c-.614-.345-1.651-.627-2.637-.627-1.856 0-3.136.998-3.136 2.675 0 1.51 1.063 2.125 2.522 2.675 1.216.448 1.78.666 1.78 1.37 0 .704-.487 1.088-1.396 1.088-.96 0-1.958-.422-2.662-.96l-.448 1.6c.806.563 1.907.896 3.02.896zm7.757 0c1.152 0 2.061-.333 2.65-.768l-.397-1.254c-.5.384-1.242.678-2.086.678-1.127 0-1.87-.589-1.972-1.677h4.75v-.243c0-2.086-1.242-3.469-3.111-3.469-1.856 0-3.264 1.383-3.264 3.38 0 1.932 1.37 3.353 3.43 3.353zm1.319-4.109h-3.072c.192-.832.793-1.382 1.587-1.382.78 0 1.37.563 1.485 1.382zm4.582 3.981v-3.06c0-1.292.474-1.996 1.485-1.996.23 0 .486.064.678.128l.256-1.536c-.243-.09-.525-.154-.832-.154-.64 0-1.216.32-1.587 1.178v-1.037h-1.587V39.2h1.587zm6.797 0l2.509-6.477h-1.639l-1.625 4.583-1.626-4.583h-1.754l2.535 6.477h1.6zm4.288-7.565c.55 0 .973-.435.973-.985s-.423-.973-.973-.973c-.563 0-.986.422-.986.973 0 .55.423.985.986.985zm.78 7.565v-6.477h-1.6V39.2h1.6zm4.813.128c.948 0 1.741-.294 2.304-.678l-.396-1.332c-.525.333-1.178.564-1.767.564-1.113 0-1.83-.781-1.83-1.92 0-1.14.755-1.92 1.843-1.92.627 0 1.19.243 1.6.537l.474-1.357c-.5-.332-1.242-.627-2.19-.627-1.945 0-3.404 1.37-3.404 3.392 0 1.984 1.395 3.341 3.366 3.341zm6.4 0c1.152 0 2.061-.333 2.65-.768l-.397-1.254c-.499.384-1.241.678-2.086.678-1.127 0-1.869-.589-1.971-1.677h4.748v-.243c0-2.086-1.241-3.469-3.11-3.469-1.856 0-3.264 1.383-3.264 3.38 0 1.932 1.37 3.353 3.43 3.353zm1.319-4.109h-3.072c.192-.832.793-1.382 1.587-1.382.78 0 1.37.563 1.485 1.382zm5.081 4.109c1.664 0 2.612-.858 2.612-2.15 0-1.152-.781-1.639-2.1-1.972-.665-.179-1.203-.345-1.203-.806 0-.41.397-.614.922-.614.653 0 1.37.281 1.843.576l.294-1.23c-.524-.306-1.305-.55-2.112-.55-1.497 0-2.508.768-2.508 2.061 0 1.19.883 1.562 1.907 1.907.883.282 1.395.436 1.395.91 0 .447-.384.665-.973.665-.755 0-1.574-.307-2.125-.743l-.384 1.28c.564.41 1.536.666 2.432.666zM63.155 23.2V10.886h3.869V8.432H56.416v2.454h3.91V23.2h2.83zm12.355.208c4.472 0 7.78-3.14 7.78-7.634 0-4.472-3.308-7.55-7.759-7.55-4.43 0-7.737 3.058-7.737 7.592s3.328 7.592 7.716 7.592zm.021-2.662c-2.808 0-4.805-2.06-4.805-4.93 0-2.87 1.997-4.93 4.805-4.93 2.829 0 4.826 2.06 4.826 4.93 0 2.87-1.997 4.93-4.826 4.93zM91.36 23.2v-5.74l5.013-9.028h-2.787l-3.453 6.365L86.7 8.432h-3.1l4.993 8.986V23.2h2.766zm13.042.208c4.472 0 7.779-3.14 7.779-7.634 0-4.472-3.307-7.55-7.759-7.55-4.43 0-7.737 3.058-7.737 7.592s3.328 7.592 7.717 7.592zm.02-2.662c-2.808 0-4.804-2.06-4.804-4.93 0-2.87 1.996-4.93 4.804-4.93 2.83 0 4.826 2.06 4.826 4.93 0 2.87-1.997 4.93-4.826 4.93zM119.71 23.2V10.886h3.87V8.432H112.97v2.454h3.91V23.2h2.83zm6.116 0l1.456-4.16h5.283l1.456 4.16h2.974l-5.491-14.768h-3.037L122.976 23.2h2.85zm5.948-6.386h-3.702l1.851-5.304 1.851 5.304z"/>
    </g>
</svg>
