<svg id="Layer_1" data-name="Layer 1" xmlns="http://www.w3.org/2000/svg" width="250" height="47.052" viewBox="0 0 250 47.052"><defs><style>.cls-1{fill:#eb0a1e;}.cls-2{fill:#fff;}</style></defs><g id="TIMS---ALT"><g id="_375-HOMEPAGE-NEWSFEED-TIMS-LOGO" data-name=" 375-HOMEPAGE-NEWSFEED-TIMS-LOGO"><g id="VIS-logo-tims"><g id="Group"><rect id="Rectangle" class="cls-1" width="47.258" height="47.052"/><path id="Shape" class="cls-2" d="M23.636,12.848c-8.93,0-15.762,4.579-15.762,10.685S14.527,34.2,23.636,34.2s15.689-4.772,15.689-10.67S32.493,12.848,23.577,12.848m9.809,4.579c.342,1.319-1.206,2.964-6.162,3.5-.328-3.35-1.325-6.18-2.977-6.788a20.346,20.346,0,0,1,6.177,1.112c1.726.637,2.8,1.482,2.977,2.178m-7.338,6.047c0,4.253-1.28,6.016-2.471,6.016s-2.486-1.763-2.486-6.016h0c.8.074,1.623.1,2.486.1a19.238,19.238,0,0,0,2.471-.1h0M23.592,21.1H21.255c.387-2.787,1.384-4.446,2.337-4.446s1.935,1.615,2.322,4.446H23.592m-9.824-3.676c.164-.711,1.235-1.482,2.977-2.178a20.536,20.536,0,0,1,6.207-1.112c-1.667.608-2.665,3.438-2.977,6.788-4.957-.534-6.49-2.179-6.162-3.5M10.2,23.148a7.106,7.106,0,0,1,1.667-4.639C12,20.9,15.246,22.673,19.86,23.3v.178c0,5.75,1.488,8.8,3.126,9.44-7.06-.252-12.786-4.58-12.786-9.766m14.051,9.766c1.682-.652,3.17-3.928,3.17-9.44V23.3c4.629-.623,7.859-2.4,7.993-4.787a7.106,7.106,0,0,1,1.667,4.639c0,5.186-5.745,9.529-12.815,9.766"/></g><path id="ToyotaInsurance" class="cls-2" d="M67.9,22.143V8.018h4.536V5.2H60V8.018h4.585V22.143Zm10.075.239c3.951,0,6.682-2.649,6.682-6.275s-2.731-6.276-6.682-6.276c-3.975,0-6.707,2.649-6.707,6.276S74,22.382,77.977,22.382Zm0-2.744a3.367,3.367,0,0,1-3.559-3.165,3.192,3.192,0,0,1,0-.366,3.55,3.55,0,1,1,7.1-.024,3.367,3.367,0,0,1-3.169,3.554,3.474,3.474,0,0,1-.368,0Zm9.54,7.564c2.415,0,3.8-1.193,4.732-3.555L97.636,10.07h-3.17l-2.927,8.208L88.3,10.07H84.955l5,11.6-.463,1.1A2.5,2.5,0,0,1,86.954,24.5a3.349,3.349,0,0,1-1.122-.191l-.365,2.553A5.691,5.691,0,0,0,87.515,27.2Zm16.977-4.82c3.951,0,6.682-2.649,6.682-6.275s-2.731-6.276-6.682-6.276c-3.975,0-6.707,2.649-6.707,6.276S100.517,22.382,104.492,22.382Zm0-2.744a3.369,3.369,0,0,1-3.559-3.167,3.157,3.157,0,0,1,0-.364,3.55,3.55,0,1,1,7.1-.024,3.367,3.367,0,0,1-3.169,3.554A3.262,3.262,0,0,1,104.492,19.638Zm13.441,2.744a6.2,6.2,0,0,0,3.341-.931l-.488-2.41a4.6,4.6,0,0,1-2.122.645c-.926,0-1.463-.525-1.463-1.671v-5.44h3.341v-2.5H117.2V6.3l-3.048.381v3.389h-1.9v2.5h1.9v5.846C114.153,21.094,115.567,22.382,117.933,22.382Zm8.148.024a5.038,5.038,0,0,0,4.17-1.933v1.67h3.025V14.532c0-3.269-2.073-4.7-5.244-4.7a9.974,9.974,0,0,0-5.1,1.36l.707,2.362a6.92,6.92,0,0,1,3.854-1.264c1.877,0,2.731.906,2.731,2.338v.239c-5.609.071-8.146,1.121-8.146,3.937,0,2.242,1.589,3.6,4,3.6Zm1.1-2.219c-1.244,0-1.927-.6-1.927-1.551,0-1.313,1.244-1.861,4.975-1.933v.811c0,1.862-1.563,2.673-3.05,2.673Zm17.955,1.956V5.2h-3.293V22.143Zm6.587,0V15.7a2.915,2.915,0,0,1,2.608-3.191,3.009,3.009,0,0,1,.465-.009c1.756,0,2.536,1,2.536,3.125v6.514h3.049V14.484c0-3.03-1.512-4.677-4.366-4.677a4.841,4.841,0,0,0-4.292,2.243V10.07h-3.048V22.143Zm15.758.239c3.17,0,4.975-1.6,4.975-4.009,0-2.147-1.488-3.054-4-3.674-1.268-.334-2.292-.645-2.292-1.5,0-.763.756-1.145,1.756-1.145a7.3,7.3,0,0,1,3.511,1.074l.561-2.291a8.454,8.454,0,0,0-4.024-1.026c-2.853,0-4.78,1.432-4.78,3.842,0,2.219,1.683,2.911,3.634,3.555,1.683.525,2.658.811,2.658,1.694,0,.835-.731,1.241-1.853,1.241a6.992,6.992,0,0,1-4.048-1.384l-.732,2.386a8.638,8.638,0,0,0,4.632,1.237Zm11.709.024a4.873,4.873,0,0,0,4.365-2.2v1.932H186.6V10.07h-3.049v6.442a2.951,2.951,0,0,1-2.664,3.213,3.023,3.023,0,0,1-.436.008c-1.732,0-2.488-1-2.488-3.149V10.07H174.92v7.659c0,3.054,1.512,4.673,4.268,4.673Zm13.66-.263v-5.7c0-2.41.9-3.723,2.829-3.723a4.443,4.443,0,0,1,1.292.239l.488-2.863a4.662,4.662,0,0,0-1.585-.287,3.191,3.191,0,0,0-3.024,2.2V10.07h-3.024V22.143Zm8.928.263a5.04,5.04,0,0,0,4.171-1.933v1.67h3.024V14.532c0-3.269-2.073-4.7-5.243-4.7a9.974,9.974,0,0,0-5.1,1.36l.708,2.362a6.915,6.915,0,0,1,3.853-1.264c1.878,0,2.731.906,2.731,2.338v.239c-5.609.071-8.145,1.121-8.145,3.937,0,2.242,1.585,3.6,4,3.6Zm1.1-2.219c-1.244,0-1.927-.6-1.927-1.551,0-1.313,1.244-1.861,4.975-1.933v.811c0,1.862-1.564,2.673-3.052,2.673Zm12.27,1.956V15.7a2.915,2.915,0,0,1,2.608-3.191,3.009,3.009,0,0,1,.465-.009c1.756,0,2.536,1,2.536,3.125v6.514H223.8V14.484c0-3.03-1.512-4.677-4.366-4.677a4.841,4.841,0,0,0-4.292,2.243V10.07H212.1V22.143Zm17.391.239a7.931,7.931,0,0,0,4.39-1.265l-.756-2.481a6.708,6.708,0,0,1-3.365,1.05,3.336,3.336,0,0,1-3.493-3.171,3.268,3.268,0,0,1,0-.408A3.382,3.382,0,0,1,232.5,12.53c.112-.006.225-.008.337,0a5.391,5.391,0,0,1,3.049,1l.9-2.53a7.617,7.617,0,0,0-4.17-1.169,6.166,6.166,0,0,0-6.482,5.833c-.008.163-.01.327-.006.49a6.043,6.043,0,0,0,5.842,6.239c.19.006.38,0,.57-.008Zm11.856,0a8.637,8.637,0,0,0,5.048-1.432l-.756-2.338a6.714,6.714,0,0,1-3.975,1.265c-2.146,0-3.561-1.1-3.756-3.126H250V16.3c0-3.889-2.366-6.466-5.926-6.466a6.052,6.052,0,0,0-6.222,5.875c0,.142,0,.284,0,.425,0,3.6,2.609,6.246,6.536,6.246Zm2.512-7.659H241.05a3.094,3.094,0,0,1,3.024-2.577,2.834,2.834,0,0,1,2.826,2.577Z"/><path id="ManagementSolutions" class="cls-2" d="M63.282,42.354V32.98L66.4,38.559h1.83l3.188-5.579v9.374h2.317V29.937H70.792l-3.467,5.876-3.293-5.876H61V42.354Zm15.37.193a3.565,3.565,0,0,0,2.979-1.417v1.224h2.161V36.775c0-2.4-1.481-3.445-3.746-3.445a6.992,6.992,0,0,0-3.642,1l.505,1.732a4.862,4.862,0,0,1,2.753-.927c1.342,0,1.952.665,1.952,1.714v.175c-4.008.052-5.82.822-5.82,2.886a2.567,2.567,0,0,0,2.479,2.652A2.529,2.529,0,0,0,78.652,42.547Zm.784-1.627c-.889,0-1.377-.437-1.377-1.137,0-.962.889-1.364,3.555-1.416v.594a1.981,1.981,0,0,1-1.993,1.969C79.559,40.929,79.5,40.926,79.436,40.92ZM88.2,42.354V37.632A2.112,2.112,0,0,1,90.065,35.3a2.081,2.081,0,0,1,.335-.011c1.255,0,1.812.735,1.812,2.292v4.774H94.39V36.74c0-2.221-1.08-3.428-3.119-3.428A3.433,3.433,0,0,0,88.2,34.956V33.5H86.024v8.85Zm10.822.193A3.563,3.563,0,0,0,102,41.13v1.224h2.16V36.775c0-2.4-1.481-3.445-3.746-3.445a7,7,0,0,0-3.641,1l.505,1.732a4.862,4.862,0,0,1,2.753-.927c1.342,0,1.952.665,1.952,1.714v.175c-4.008.052-5.82.822-5.82,2.886a2.564,2.564,0,0,0,2.861,2.637Zm.784-1.627c-.889,0-1.377-.437-1.377-1.137,0-.962.889-1.364,3.555-1.416v.594a1.982,1.982,0,0,1-1.993,1.969c-.061,0-.122,0-.183-.01ZM110.368,46.2c2.753,0,4.826-1.364,4.826-4.233V33.5h-2.178v1.33a3.462,3.462,0,0,0-2.979-1.5,4.244,4.244,0,0,0-4.224,4.266c0,.082,0,.164.008.246a4.165,4.165,0,0,0,3.88,4.433q.168.012.336.009a3.277,3.277,0,0,0,2.979-1.521v1.172c0,1.5-1.045,2.308-2.718,2.308a5.03,5.03,0,0,1-3.258-1.119l-.575,2.011A6.578,6.578,0,0,0,110.368,46.2Zm.192-5.807a2.59,2.59,0,0,1,0-5.177,2.5,2.5,0,0,1,2.492,2.508v.063a2.468,2.468,0,0,1-2.326,2.6C110.67,40.394,110.615,40.4,110.56,40.4Zm10.978,2.134a6.061,6.061,0,0,0,3.607-1.049l-.54-1.714a4.719,4.719,0,0,1-2.84.927,2.42,2.42,0,0,1-2.671-2.14c-.006-.05-.01-.1-.012-.151h6.464v-.333c0-2.851-1.69-4.739-4.234-4.739a4.381,4.381,0,0,0-4.449,4.312c0,.1,0,.2.006.3a4.428,4.428,0,0,0,4.262,4.586C121.267,42.538,121.4,42.537,121.538,42.529Zm1.8-5.614h-4.182a2.229,2.229,0,0,1,2.161-1.889,2.044,2.044,0,0,1,2.016,1.889Zm6.013,5.439V37.632c0-1.452.732-2.361,1.951-2.361,1.133,0,1.621.734,1.621,2.291v4.792H135.1V37.562c0-1.382.766-2.291,1.951-2.291,1.15,0,1.638.734,1.638,2.291v4.792h2.178V36.723c0-2.222-1.028-3.411-3-3.411a3.123,3.123,0,0,0-2.98,1.89,2.609,2.609,0,0,0-2.771-1.889,3.067,3.067,0,0,0-2.77,1.557V33.5h-2.178v8.85Zm17.843.175A6.061,6.061,0,0,0,150.8,41.48l-.54-1.714a4.719,4.719,0,0,1-2.84.927,2.42,2.42,0,0,1-2.671-2.14c-.006-.05-.01-.1-.012-.151H151.2v-.333c0-2.851-1.69-4.739-4.234-4.739a4.381,4.381,0,0,0-4.449,4.312c0,.1,0,.2.006.3a4.428,4.428,0,0,0,4.262,4.586c.135,0,.27,0,.4,0Zm1.8-5.614H144.8a2.229,2.229,0,0,1,2.161-1.889,2.044,2.044,0,0,1,2.023,1.889ZM155,42.354V37.632a2.112,2.112,0,0,1,1.865-2.333,2.138,2.138,0,0,1,.33-.011c1.255,0,1.812.735,1.812,2.292v4.774h2.178V36.74c0-2.221-1.08-3.428-3.118-3.428A3.434,3.434,0,0,0,155,34.956V33.5h-2.178v8.85Zm11.519.175a4.357,4.357,0,0,0,2.387-.682l-.349-1.766a3.231,3.231,0,0,1-1.515.472c-.663,0-1.046-.385-1.046-1.224V35.341h2.387V33.5H166V30.741l-2.178.28V33.5h-1.359v1.837h1.359v4.285c0,1.961,1.008,2.905,2.7,2.905Zm10.876,0c2.666,0,4.408-1.4,4.408-3.865,0-2.221-1.446-2.851-3.4-3.568-1.481-.542-2.456-.927-2.456-1.906,0-.84.749-1.347,1.881-1.347a6.4,6.4,0,0,1,2.928.8l.662-2.028a7.929,7.929,0,0,0-3.59-.857c-2.526,0-4.268,1.364-4.268,3.655,0,2.064,1.446,2.9,3.432,3.655,1.655.613,2.422.91,2.422,1.872s-.662,1.486-1.9,1.486a6.268,6.268,0,0,1-3.624-1.311l-.61,2.186a7.316,7.316,0,0,0,4.112,1.228Zm10.438,0a4.6,4.6,0,1,0-4.791-4.6,4.508,4.508,0,0,0,4.4,4.608c.128,0,.256,0,.384-.008Zm0-2.011a2.589,2.589,0,1,1,2.526-2.65v.044a2.437,2.437,0,0,1-2.53,2.606Zm8.871,2.011a3.84,3.84,0,0,0,1.673-.367l-.244-1.732a2.614,2.614,0,0,1-.819.175c-.523,0-.819-.3-.819-1.032V29.2h-2.178V39.923c0,1.8.883,2.606,2.383,2.606Zm5.786.018a3.455,3.455,0,0,0,3.119-1.609v1.416h2.178V33.5h-2.178v4.723a2.139,2.139,0,0,1-2.213,2.361c-1.237,0-1.777-.735-1.777-2.309V33.5h-2.178v5.615c0,2.24,1.078,3.43,3.046,3.43Zm10.8-.018a4.357,4.357,0,0,0,2.387-.682l-.349-1.766a3.243,3.243,0,0,1-1.516.472c-.662,0-1.045-.385-1.045-1.224V35.341h2.387V33.5h-2.387V30.741l-2.178.28V33.5h-1.359v1.837h1.359v4.285c0,1.961,1.006,2.905,2.7,2.905Zm4.636-10.511a1.32,1.32,0,0,0,1.325-1.315v-.032a1.333,1.333,0,1,0-1.367,1.347h.042Zm1.063,10.336V33.5h-2.178v8.85Zm6.518.175a4.6,4.6,0,1,0-4.791-4.6,4.508,4.508,0,0,0,4.4,4.608c.128,0,.256,0,.384-.008Zm0-2.011a2.589,2.589,0,1,1,2.526-2.65v.044a2.437,2.437,0,0,1-2.53,2.606Zm8.679,1.836V37.632a2.112,2.112,0,0,1,1.867-2.333,2.056,2.056,0,0,1,.333-.011c1.254,0,1.812.735,1.812,2.292v4.774h2.178V36.74c0-2.221-1.081-3.428-3.119-3.428a3.434,3.434,0,0,0-3.067,1.644V33.5H232.01v8.85Zm11.258.175c2.265,0,3.554-1.172,3.554-2.938,0-1.574-1.063-2.239-2.857-2.694-.906-.244-1.638-.472-1.638-1.1,0-.56.54-.84,1.254-.84a5.129,5.129,0,0,1,2.509.787l.4-1.679a5.918,5.918,0,0,0-2.875-.752c-2.038,0-3.415,1.049-3.415,2.816,0,1.626,1.2,2.134,2.6,2.606,1.2.385,1.9.6,1.9,1.242,0,.612-.522.909-1.324.909a4.912,4.912,0,0,1-2.892-1.014l-.523,1.749a6.065,6.065,0,0,0,3.3.908Z"/></g></g></g></svg>