<svg xmlns="http://www.w3.org/2000/svg" width="167" height="49" viewBox="0 0 167 49">
    <g fill="none" fill-rule="evenodd">
        <g>
            <path fill="#EB0A1E" d="M0 0H47.258V47.195H0z" transform="translate(0 .8)"/>
            <path fill="#FFF" fill-rule="nonzero" d="M23.636 12.888c-8.93 0-15.762 4.593-15.762 10.717 0 6.124 6.653 10.702 15.762 10.702 9.11 0 15.689-4.786 15.689-10.702s-6.832-10.717-15.748-10.717m9.809 4.593c.342 1.323-1.206 2.973-6.162 3.508-.328-3.36-1.325-6.199-2.977-6.808 2.104.048 4.188.424 6.177 1.115 1.726.639 2.798 1.486 2.977 2.185m-7.338 6.064c0 4.267-1.28 6.035-2.471 6.035s-2.486-1.768-2.486-6.035c.804.075 1.623.104 2.486.104.863 0 1.682 0 2.47-.104m-2.47-2.378h-2.337c.387-2.794 1.384-4.46 2.337-4.46.952 0 1.935 1.62 2.322 4.46h-2.322m-9.824-3.686c.164-.714 1.235-1.487 2.977-2.185 1.999-.69 4.093-1.066 6.207-1.115-1.667.61-2.665 3.448-2.977 6.808-4.957-.535-6.49-2.185-6.162-3.508m-3.617 5.737c-.016-1.7.575-3.349 1.667-4.652.134 2.393 3.379 4.177 7.993 4.801v.178c0 5.768 1.488 8.83 3.126 9.47-7.056-.254-12.786-4.594-12.786-9.797m14.05 9.796c1.683-.654 3.171-3.939 3.171-9.469v-.178c4.63-.624 7.86-2.408 7.993-4.801 1.092 1.303 1.683 2.953 1.667 4.652 0 5.203-5.745 9.558-12.815 9.796" transform="translate(0 .8)"/>
        </g>
        <path fill="#FFF" fill-rule="nonzero" d="M63.155 33.2V20.886h3.869v-2.454H56.416v2.454h3.91V33.2h2.83zm8.882.208c3.37 0 5.699-2.309 5.699-5.47 0-3.162-2.33-5.47-5.7-5.47-3.39 0-5.72 2.308-5.72 5.47 0 3.161 2.33 5.47 5.72 5.47zm0-2.392c-1.789 0-3.037-1.227-3.037-3.078 0-1.83 1.227-3.079 3.037-3.079 1.789 0 3.016 1.248 3.016 3.058 0 1.83-1.207 3.099-3.016 3.099zm8.424 6.594c2.059 0 3.245-1.04 4.035-3.1l4.597-11.835h-2.704l-2.496 7.155-2.767-7.155h-2.85l4.265 10.109-.395.957c-.5 1.165-1.207 1.518-2.164 1.518-.353 0-.665-.062-.956-.166l-.312 2.225c.582.23 1.185.292 1.747.292zm14.768-4.202c3.37 0 5.699-2.309 5.699-5.47 0-3.162-2.33-5.47-5.7-5.47-3.39 0-5.72 2.308-5.72 5.47 0 3.161 2.33 5.47 5.72 5.47zm0-2.392c-1.789 0-3.037-1.227-3.037-3.078 0-1.83 1.227-3.079 3.037-3.079 1.789 0 3.016 1.248 3.016 3.058 0 1.83-1.207 3.099-3.016 3.099zm11.752 2.392c1.185 0 2.205-.374 2.85-.811l-.417-2.101c-.436.25-1.123.562-1.81.562-.79 0-1.247-.458-1.247-1.456v-4.743h2.85v-2.184h-2.85V19.39l-2.6.333v2.953h-1.623v2.184h1.623v5.096c0 2.33 1.206 3.453 3.224 3.453zm7.238.02c1.623 0 2.891-.727 3.557-1.684V33.2h2.58v-6.635c0-2.85-1.769-4.098-4.473-4.098-1.81 0-3.349.562-4.347 1.186l.603 2.059c.77-.52 1.872-1.102 3.287-1.102 1.601 0 2.33.79 2.33 2.038v.208c-4.785.062-6.948.978-6.948 3.432 0 1.955 1.352 3.14 3.411 3.14zm.936-1.934c-1.06 0-1.643-.52-1.643-1.352 0-1.144 1.06-1.622 4.243-1.684v.707c0 1.622-1.331 2.33-2.6 2.33zm15.247 1.914c2.163 0 3.785-.582 5.2-1.58l-.79-2.476c-1.04.749-2.518 1.414-4.202 1.414-2.996 0-4.93-2.142-4.93-4.97 0-2.892 1.997-4.93 4.93-4.93 1.476 0 2.766.561 3.848 1.33l.915-2.537c-1.248-.832-2.891-1.435-4.867-1.435-4.472 0-7.759 3.078-7.759 7.613 0 4.472 3.162 7.571 7.655 7.571zm9.817.02c1.623 0 2.891-.727 3.557-1.684V33.2h2.58v-6.635c0-2.85-1.769-4.098-4.473-4.098-1.81 0-3.349.562-4.347 1.186l.603 2.059c.77-.52 1.872-1.102 3.287-1.102 1.601 0 2.33.79 2.33 2.038v.208c-4.785.062-6.948.978-6.948 3.432 0 1.955 1.352 3.14 3.411 3.14zm.936-1.934c-1.06 0-1.643-.52-1.643-1.352 0-1.144 1.06-1.622 4.243-1.684v.707c0 1.622-1.331 2.33-2.6 2.33zm10.733 1.706v-4.971c0-2.101.77-3.245 2.413-3.245.374 0 .79.104 1.102.208l.416-2.496c-.395-.146-.853-.25-1.352-.25-1.04 0-1.976.52-2.579 1.914v-1.685h-2.58V33.2h2.58zm10.109.208c1.872 0 3.349-.54 4.305-1.248l-.644-2.038c-.812.624-2.018 1.102-3.39 1.102-1.831 0-3.038-.957-3.204-2.725h7.717v-.395c0-3.39-2.018-5.637-5.055-5.637-3.016 0-5.304 2.247-5.304 5.491 0 3.141 2.226 5.45 5.575 5.45zm2.142-6.677h-4.992c.312-1.352 1.29-2.246 2.58-2.246 1.268 0 2.225.915 2.412 2.246z"/>
    </g>
</svg>
